<?xml version="1.0" encoding="UTF-8"?><svg id="Layer_2" xmlns="http://www.w3.org/2000/svg" viewBox="0 0 195.0561 50.0928"><defs><style>.cls-1{fill:#f0122d;}.cls-2{fill:none;stroke:#f0122d;stroke-linecap:round;stroke-miterlimit:10;stroke-width:2px;}</style></defs><g id="Layer_2-2"><path class="cls-1" d="m32.9516,5.8502S4.3605,21.6538,9.5479,40.9559c2.4624,5.4666,8.0947,7.722,13.8263,6.9781,5.1479-.6681,11.9151-3.7558,12.7537-9.5068.1501-1.0297.1038-2.0868-.1848-3.0892-.8378-2.9101-3.7332-4.6732-6.6714-4.783-1.9636-.0734-3.5593.6378-5.1737,1.6635-1.4802.9405-3.4978,2.4752-5.3064,1.4682-5.0572-2.8158,4.6543-11.309,11.506-11.309,6.997,0,11.8225,3.4985,13.167,10.3749V8.343c0-1.3767-1.116-2.4928-2.4928-2.4928h-8.0202"/><path class="cls-1" d="m25.2922,5.8502S2.8536,17.974,0,30.0984c0-4.7554.0367-16.6456.0533-21.8006.0044-1.354,1.1032-2.4477,2.4571-2.4477h22.7817Z"/><path class="cls-1" d="m0,35.3209c.9223,5.9365,6.0896,13.2127,14.6951,14.7466.2011,0-4.9864.0253-12.2543,0-1.3496-.0047-2.4408-1.0941-2.4408-2.4437v-12.3029Z"/><path class="cls-1" d="m43.4646,37.6383c-.5,6.5144-9.2463,11.8001-16.4242,12.4545-.0452,0,9.4687-.0253,13.9835-.0253,1.3496,0,2.4408-1.0941,2.4408-2.4437,0,0,0-4.5919,0-9.9856Z"/><line class="cls-2" x1="55.3435" y1="26.9809" x2="193.8871" y2="26.9809"/><path d="m63.6274,8.565c-.5811-.7695-1.3809-1.1543-2.4004-1.1543-1.4004,0-2.4258.4297-3.0752,1.29-.6504.8594-.9746,2.0693-.9746,3.6299v2.5498c0,.9004.0146,1.8447.0449,2.835s.0947,1.8857.1953,2.6846c-.4609-.04-.9111-.0596-1.3506-.0596-.4404,0-.8896.0195-1.3496.0596.0996-.7988.165-1.6943.1943-2.6846.0303-.9902.0449-1.9346.0449-2.835v-3.1201c0-.9004-.0146-1.8447-.0449-2.835-.0293-.9902-.0947-1.915-.1943-2.7754.5596.1006,1.0098.1504,1.3496.1504.1602,0,.335-.0146.5254-.0449.1895-.0303.415-.0645.6748-.1055-.0605.8008-.0898,1.6006-.0898,2.4004h.0596c.5596-.8594,1.2305-1.5244,2.0098-1.9951.7803-.4697,1.71-.7051,2.79-.7051.5605,0,1.125.0801,1.6953.2402s1.085.4346,1.5449.8252c.46.3896.835.9199,1.125,1.5898s.4355,1.5254.4355,2.5654c0,.8594-.0205,1.7451-.0605,2.6543-.04.9102-.0596,1.875-.0596,2.8955v1.9502c0,.3193.0049.6348.0146.9443.0098.3105.0254.6055.0449.8848-.4004-.04-.8203-.0596-1.2598-.0596-.4199,0-.8301.0195-1.2305.0596.04-1.0391.085-2.1094.1357-3.21.0498-1.0996.0742-2.2295.0742-3.3896v-1.8301c0-1.5-.29-2.6348-.8691-3.4053Z"/><path d="m71.3969,15.8707c0-1.0605.0146-1.9648.0449-2.7148s.0449-1.4951.0449-2.2354c0-.7002-.0049-1.46-.0146-2.2803-.0107-.8193-.0254-1.6494-.0459-2.4902.5.1006.9199.1504,1.2607.1504.3193,0,.7295-.0498,1.2295-.1504-.1006,1.2002-.1748,2.5156-.2246,3.9453-.0508,1.4307-.0752,2.8955-.0752,4.3955,0,1.04.0898,1.835.2695,2.3848.1807.5498.4004.9648.6602,1.2451.2803.3203.6348.585,1.0654.7949.4297.21.9346.3145,1.5146.3145.8398,0,1.54-.1846,2.1006-.5547.5596-.3701.9697-.8252,1.2295-1.3652.1396-.3398.25-.6299.3301-.8701.0801-.2393.1445-.5596.1953-.96.0498-.3994.0791-.9395.0898-1.6201.0098-.6797.0146-1.6094.0146-2.7891v-2.5205c0-.4395-.0049-.8594-.0146-1.2598-.0107-.4004-.0254-.7803-.0449-1.1406.2197.041.4297.0752.6299.1055.1992.0303.4092.0449.6299.0449.2197,0,.4297-.0146.6299-.0449s.4004-.0645.6006-.1055c-.1006,1.5605-.1611,3.0654-.1807,4.5156s-.0293,2.9844-.0293,4.6045c0,.9004.0098,1.7803.0293,2.6406.0195.8594.0498,1.6904.0898,2.4893-.3994-.04-.79-.0596-1.1699-.0596s-.7695.0195-1.1699.0596c.0195-.1797.0352-.3691.0449-.5693s.0156-.4102.0156-.6299v-1.29h-.0605c-.5205.96-1.1895,1.665-2.0098,2.1143-.8203.4502-1.71.6758-2.6699.6758-1.5596,0-2.7852-.415-3.6748-1.2451-.8906-.8301-1.335-2.0254-1.335-3.585Z"/><path d="m88.0922,8.9254c-.0303-.9902-.0947-1.915-.1953-2.7754.5605.1006,1.0098.1504,1.3506.1504.1592,0,.335-.0146.5244-.0449.1904-.0303.415-.0645.6758-.1055-.0605.8008-.0908,1.6006-.0908,2.4004h.0605c1.0596-1.7998,2.5498-2.7002,4.4697-2.7002.5,0,.9902.0752,1.4697.2256.4805.1494.915.3545,1.3057.6143.3896.2607.7246.5752,1.0049.9453.2793.3701.4697.7646.5703,1.1855h.0596c.4805-.9609,1.1348-1.6953,1.9648-2.2051.8301-.5107,1.7852-.7656,2.8652-.7656.6602,0,1.2695.0898,1.8301.2705.5596.1797,1.0449.46,1.4551.8398.4092.3799.7295.8701.96,1.4697.2295.6006.3447,1.3203.3447,2.1602,0,.3398-.0098.71-.0303,1.1104-.0195.4004-.04.8652-.0596,1.3945-.0205.5303-.04,1.1299-.0605,1.7998-.0195.6709-.0293,1.4453-.0293,2.3252,0,.54.0049,1.0605.0146,1.5605s.0352,1.04.0752,1.6191c-.2207-.04-.4404-.0596-.6602-.0596h-1.29c-.2197,0-.4404.0195-.6602.0596.0605-.499.125-1.5098.1953-3.0293.0693-1.5195.1045-3.6396.1045-6.3604,0-.5-.0547-.9697-.1641-1.4102-.1104-.4395-.2852-.8193-.5254-1.1396-.2402-.3193-.5605-.5752-.96-.7646-.4004-.1904-.9004-.2852-1.5-.2852-.7197,0-1.3301.1396-1.8301.4199s-.8906.6104-1.1699.9902c-.1602.2197-.2852.4395-.375.6592-.0898.2207-.1602.5557-.21,1.0049-.0508.4502-.0859,1.0801-.1055,1.8906-.0195.8096-.0293,1.9248-.0293,3.3447,0,.8604.0146,1.6455.0449,2.3555.0293.71.0645,1.4844.1045,2.3242-.46-.04-.8994-.0596-1.3193-.0596-.4209,0-.8604.0195-1.3203.0596.0996-1.0996.1699-2.2197.21-3.3594.04-1.1406.0596-2.2598.0596-3.3604,0-.9395-.0049-1.6748-.0146-2.2051-.0107-.5293-.0352-.9492-.0752-1.2598-.04-.3096-.0947-.5645-.165-.7646s-.165-.4199-.2852-.6602c-.2197-.3799-.5654-.7051-1.0342-.9756-.4707-.2695-.9561-.4043-1.4551-.4043-1.3203,0-2.291.4297-2.9102,1.29-.6201.8594-.9307,2.0693-.9307,3.6299v2.5498c0,.9004.0156,1.8447.0459,2.835.0293.9902.0938,1.8857.1943,2.6846-.46-.04-.9102-.0596-1.3496-.0596-.4404,0-.8906.0195-1.3506.0596.1006-.7988.165-1.6943.1953-2.6846s.0449-1.9346.0449-2.835v-3.1201c0-.9004-.0146-1.8447-.0449-2.835Z"/><path d="m126.2065,12.9c0,1.1602-.1748,2.2207-.5254,3.1807-.3496.96-.8301,1.7852-1.4395,2.4746-.6104.6904-1.3301,1.2207-2.1602,1.5898-.8301.3701-1.7246.5557-2.6846.5557s-1.8252-.2061-2.5957-.6152c-.7695-.4102-1.3545-.9053-1.7549-1.4854-.7197.5801-1.3896,1.1602-2.0098,1.7402h-.54c.04-.4805.0752-1.0596.1055-1.7402.0293-.6797.0547-1.4043.0742-2.1748.0205-.7695.0352-1.5547.0449-2.3545.0107-.7998.0156-1.54.0156-2.2207v-5.4297c0-.6797-.0049-1.4199-.0156-2.2197-.0098-.7998-.0244-1.5908-.0449-2.3701-.0195-.7803-.1396-1.2947-.1797-1.7947.5596.0996,1.0098.1494,1.3496.1494.2207,0,.4502-.0146.6904-.0449s.5-.0645.7803-.1045c-.0605.3994-.2207,1.49-.2402,2.5593-.0205,1.0703-.04,2.1709-.0596,3.2998-.0205,1.1309-.041,2.1553-.0605,3.0752h.0605c.6797-1.0801,1.4297-1.8701,2.25-2.3701.8193-.499,1.7695-.75,2.8496-.75,1.04,0,1.9395.1953,2.7002.585.7598.3906,1.3896.9053,1.8896,1.5449.5.6406.875,1.3857,1.125,2.2354.25.8506.375,1.7451.375,2.6846Zm-2.6396-.0898c0-.9189-.1152-1.7344-.3457-2.4443-.2295-.71-.5293-1.3057-.8994-1.7852-.3701-.4805-.8008-.8447-1.29-1.0957-.4902-.249-.9951-.375-1.5146-.375-.6211,0-1.2158.1162-1.7852.3457-.5703.2295-1.0654.6104-1.4854,1.1396-.4199.5303-.7549,1.2207-1.0049,2.0703-.25.8506-.375,1.8945-.375,3.1348,0,4.0205,1.46,6.0303,4.3799,6.0303.6201,0,1.1895-.165,1.71-.4951.5195-.3301.9746-.8047,1.3652-1.4248.3896-.6201.6943-1.3604.915-2.2207.2197-.8594.3301-1.8193.3301-2.8799Z"/><path d="m128.516,13.7408c0-2.46.585-4.3906,1.7549-5.79,1.1699-1.4004,2.875-2.1006,5.1152-2.1006,1.0596,0,1.9746.165,2.7451.4951.7695.3301,1.415.7705,1.9346,1.3203.5205.5498.9053,1.1953,1.1553,1.9346.25.7402.375,1.5303.375,2.3701,0,.2002-.0049.3955-.0146.585-.0107.1904-.0254.3857-.0449.585-1.0801-.0195-2.1504-.04-3.21-.0596-1.0605-.0195-2.1299-.0303-3.21-.0303-.6602,0-1.3154.0107-1.9658.0303-.6494.0195-1.3047.04-1.9648.0596-.0195.1006-.0293.251-.0293.4502v.3896c0,.7803.1143,1.5107.3447,2.1904.2295.6797.5645,1.2646,1.0049,1.7549.4395.4902.9795.8799,1.6201,1.1699.6396.29,1.3799.4355,2.2197.4355.4004,0,.8105-.0557,1.2305-.165.4199-.1104.8291-.2598,1.2295-.4502s.7754-.415,1.125-.6748.6553-.54.915-.8408l.1504.0908-.1807,1.4697c-.5996.4795-1.3447.8896-2.2344,1.2295-.8906.3398-1.8154.5107-2.7754.5107-1.0801,0-2.0654-.165-2.9551-.4951s-1.6602-.8105-2.3096-1.4404c-.6504-.6299-1.1504-1.375-1.5-2.2344-.3506-.8604-.5254-1.79-.5254-2.79Zm6.9307-6.9307c-.7402,0-1.3652.1709-1.875.5107-.5107.3398-.9307.7646-1.2607,1.2744s-.5801,1.0703-.75,1.6797c-.1699.6104-.2744,1.1855-.3145,1.7256.6191.0195,1.2646.04,1.9346.0596.6699.0205,1.3252.0303,1.9648.0303.6602,0,1.3301-.0098,2.0107-.0303.6797-.0195,1.3389-.04,1.9795-.0596,0-.54-.0449-1.1104-.1348-1.71-.0898-.6006-.2705-1.1602-.54-1.6807-.2705-.5195-.6455-.9492-1.125-1.2891-.4805-.3398-1.1104-.5107-1.8896-.5107Z"/><path d="m151.0317,8.2809c-.291-.1006-.585-.1504-.8857-.1504-.4795,0-.9102.1104-1.29.3301s-.7002.5146-.96.8848-.46.8105-.5996,1.3203c-.1406.5098-.21,1.0547-.21,1.6348v3.2998c0,1.3408.0049,2.3652.0146,3.0752s.0449,1.2852.1055,1.7246c-.4004-.04-.8008-.0596-1.2002-.0596-.4404,0-.8604.0195-1.2598.0596.0596-.6797.0947-1.6045.1045-2.7744s.0156-2.6055.0156-4.3047v-.9609c0-.7793-.0059-1.6797-.0156-2.6992-.0098-1.0205-.0449-2.1904-.1045-3.5107.2197.041.4297.0752.6299.1055.1992.0303.4092.0449.6299.0449.1797,0,.3701-.0146.5703-.0449.1992-.0303.4092-.0645.6299-.1055-.0801.7207-.125,1.29-.1348,1.71-.0107.4209-.0156.8203-.0156,1.2002l.0605.0303c1.1797-2.1602,2.499-3.2402,3.96-3.2402.1797,0,.334.0107.4648.0303.1299.0205.2949.0703.4951.1504-.1006.2393-.1602.6045-.1807,1.0947-.0195.4902-.0293.9346-.0293,1.335l-.21.1494c-.1006-.1191-.2959-.2295-.585-.3291Z"/><path d="m163.391,18.2701c.21.2402.46.4648.75.6758.29.21.6201.3848.9902.5244.3701.1406.7646.21,1.1846.21.3799,0,.7451-.0596,1.0957-.1797.3496-.1201.6602-.29.9297-.5098.2705-.2207.4844-.5.6455-.8408.1592-.3398.2393-.7295.2393-1.1699,0-.6191-.1748-1.0947-.5244-1.4248-.3506-.3301-.7852-.5996-1.3057-.8096-.5195-.21-1.0898-.3945-1.71-.5557-.6201-.1592-1.1895-.3848-1.71-.6748-.5195-.2891-.9551-.6748-1.3047-1.1553-.3506-.4795-.5254-1.1396-.5254-1.9795,0-.6602.1104-1.2646.3301-1.8154.2197-.5498.54-1.0244.96-1.4248.4199-.3994.9404-.7148,1.5605-.9443.6191-.2305,1.3301-.3457,2.1299-.3457.7393,0,1.3652.1006,1.875.2998.5098.2002.9941.3809,1.4551.54-.1602.3008-.3105.6709-.4502,1.1104-.1396.4404-.2305.7803-.2695,1.0205h-.3604c-.1602-.4805-.4707-.9102-.9297-1.29-.4609-.3799-1.0303-.5703-1.71-.5703-.3008,0-.6006.0498-.9004.1494-.2998.1006-.5703.251-.8096.4502-.2402.2002-.4404.4609-.6006.7803-.1602.3203-.2402.7002-.2402,1.1396,0,.6406.1748,1.1357.5254,1.4854.3496.3506.7842.625,1.3047.8252s1.0898.375,1.71.5244c.6201.1504,1.1904.3604,1.71.6309.5205.2695.9551.6445,1.3057,1.125.3496.4795.5244,1.1396.5244,1.9795,0,.5801-.125,1.1504-.375,1.71-.25.5605-.6104,1.0654-1.0801,1.5146-.4697.4502-1.0342.8008-1.6943,1.0508-.6602.249-1.4102.375-2.25.375-.9209,0-1.6904-.0908-2.3105-.2705s-1.1396-.3896-1.5596-.6299c.1201-.2598.2441-.6152.375-1.0654.1299-.4492.1943-.8242.1943-1.125h.3604c.0996.2002.2549.4209.4648.6602Z"/><path d="m175.1059,1.5303c0-.4199.1504-.7803.4502-1.0801s.6602-.4502,1.0801-.4502.7803.1504,1.0801.4502.4502.6602.4502,1.0801-.1504.7803-.4502,1.0801-.6602.4502-1.0801.4502-.7803-.1504-1.0801-.4502-.4502-.6602-.4502-1.0801Zm.4199,10.2301c0-.9004-.0146-1.8447-.0449-2.835-.0293-.9902-.0947-1.915-.1943-2.7754.5596.1006,1.0098.1504,1.3496.1504s.79-.0498,1.3496-.1504c-.0996.8604-.1641,1.7852-.1943,2.7754s-.0449,1.9346-.0449,2.835v3.1201c0,.9004.0146,1.8447.0449,2.835s.0947,1.8857.1943,2.6846c-.46-.04-.9102-.0596-1.3496-.0596-.4404,0-.8896.0195-1.3496.0596.0996-.7988.165-1.6943.1943-2.6846.0303-.9902.0449-1.9346.0449-2.835v-3.1201Z"/><path d="m188.5756,11.7604c.7207-.96,1.4258-1.8945,2.1152-2.8047.6904-.9102,1.3652-1.8457,2.0254-2.8057.1797.041.3545.0752.5244.1055s.3457.0449.5254.0449c.2402,0,.5801-.0498,1.0205-.1504-.9609,1.1006-1.8955,2.1855-2.8057,3.2559-.9102,1.0693-1.8145,2.1445-2.7148,3.2246.9004,1.3203,1.835,2.625,2.8047,3.915s1.9658,2.5752,2.9854,3.8545c-.2803-.04-.5508-.0596-.8096-.0596h-1.4404c-.2598,0-.5303.0195-.8096.0596-.6602-.9795-1.3408-1.9746-2.04-2.9844-.7012-1.0098-1.4102-2.0254-2.1309-3.0449-.7393,1.0195-1.4648,2.0352-2.1748,3.0449s-1.4053,2.0049-2.085,2.9844c-.3203-.04-.6504-.0596-.9902-.0596-.3594,0-.7002.0195-1.0195.0596.96-1.1191,1.8994-2.2539,2.8203-3.4043.9189-1.1504,1.8301-2.3252,2.7295-3.5254-.8994-1.2197-1.8047-2.4297-2.7148-3.6299s-1.8447-2.4297-2.8047-3.6904c.2793.041.5439.0752.7949.1055.25.0303.5146.0449.7949.0449.2793,0,.5449-.0146.7949-.0449s.5146-.0645.7949-.1055c.5801.96,1.1846,1.8955,1.8154,2.8057.6299.9102,1.2939,1.8447,1.9941,2.8047Z"/><path d="m55.0317,47.6351c.21.2402.46.4648.75.6758.29.21.6201.3848.9902.5244.3701.1406.7646.21,1.1846.21.3799,0,.7451-.0596,1.0957-.1797.3496-.1201.6602-.29.9297-.5098.2705-.2207.4844-.5.6455-.8408.1592-.3398.2393-.7295.2393-1.1699,0-.6191-.1748-1.0947-.5244-1.4248-.3506-.3301-.7852-.5996-1.3057-.8096-.5195-.21-1.0898-.3945-1.71-.5557-.6201-.1592-1.1895-.3848-1.71-.6748-.5195-.2891-.9551-.6748-1.3047-1.1553-.3506-.4795-.5254-1.1396-.5254-1.9795,0-.6602.1104-1.2646.3301-1.8154.2197-.5498.54-1.0244.96-1.4248.4199-.3994.9404-.7148,1.5605-.9443.6191-.2305,1.3301-.3457,2.1299-.3457.7393,0,1.3652.1006,1.875.2998.5098.2002.9941.3809,1.4551.54-.1602.3008-.3105.6709-.4502,1.1104-.1396.4404-.2305.7803-.2695,1.0205h-.3604c-.1602-.4805-.4707-.9102-.9297-1.29-.4609-.3799-1.0303-.5703-1.71-.5703-.3008,0-.6006.0498-.9004.1494-.2998.1006-.5703.251-.8096.4502-.2402.2002-.4404.4609-.6006.7803-.1602.3203-.2402.7002-.2402,1.1396,0,.6406.1748,1.1357.5254,1.4854.3496.3506.7842.625,1.3047.8252s1.0898.375,1.71.5244c.6201.1504,1.1904.3604,1.71.6309.5205.2695.9551.6445,1.3057,1.125.3496.4795.5244,1.1396.5244,1.9795,0,.5801-.125,1.1504-.375,1.71-.25.5605-.6104,1.0654-1.0801,1.5146-.4697.4502-1.0342.8008-1.6943,1.0508-.6602.249-1.4102.375-2.25.375-.9209,0-1.6904-.0908-2.3105-.2705s-1.1396-.3896-1.5596-.6299c.1201-.2598.2441-.6152.375-1.0654.1299-.4492.1943-.8242.1943-1.125h.3604c.0996.2002.2549.4209.4648.6602Z"/><path d="m85.5268,36.9555c.9004-.6797,1.7295-1.1396,2.4902-1.3799.7598-.2402,1.5391-.3604,2.3398-.3604.7197,0,1.3799.1055,1.9795.3154.6006.21,1.1104.5098,1.5303.8994.4199.3906.75.8604.9902,1.4102.2402.5508.3594,1.1553.3594,1.8154,0,1.1396-.0195,2.2754-.0596,3.4053s-.0596,2.3242-.0596,3.585c0,.2393.0039.4941.0146.7646.0098.2695.0547.5098.1348.7197s.1953.3857.3447.5254c.1504.1396.375.21.6758.21.0996,0,.2041-.0049.3145-.0156.1104-.0098.2148-.0449.3154-.1045v.6602c-.2207.1006-.4951.1797-.8252.2402-.3301.0596-.6953.0898-1.0947.0898-.6406,0-1.1309-.165-1.4707-.4951s-.54-.7549-.5996-1.2754c-.7197.7207-1.4297,1.25-2.1299,1.5898s-1.5605.5107-2.5801.5107c-.5,0-.9902-.0703-1.4697-.21-.4805-.1406-.9053-.3701-1.2754-.6904-.3701-.3193-.6699-.7051-.8994-1.1553-.2305-.4492-.3457-.9648-.3457-1.5449,0-1.2002.375-2.1299,1.125-2.79s1.7852-1.0996,3.1055-1.3193c1.0801-.1807,1.9248-.335,2.5352-.4658.6094-.1299,1.0596-.2646,1.3496-.4043s.4648-.3047.5254-.4951c.0596-.1904.0898-.4355.0898-.7354,0-.499-.0605-.9795-.1807-1.4395-.1191-.46-.3096-.8604-.5693-1.2002-.2607-.3398-.6006-.6152-1.0205-.8252s-.9297-.3154-1.5293-.3154c-.8008,0-1.5459.1807-2.2354.54-.6904.3604-1.2051.8604-1.5449,1.5h-.3301v-1.5596Zm7.4102,5.3398c-.3408.1201-.7354.2207-1.1855.2998-.4492.0801-.9053.165-1.3643.2549-.4609.0908-.915.2061-1.3652.3457s-.8506.3301-1.2002.5693c-.3506.2402-.6299.54-.8398.9004s-.3154.8203-.3154,1.3799c0,.9404.2705,1.6504.8105,2.1299.54.4805,1.1396.7207,1.7998.7207.7598,0,1.4551-.21,2.085-.6309.6299-.4199,1.1143-.9092,1.4551-1.4697l.1201-4.5Z"/><path d="m119.8315,33.5658c-.0098-.7998-.0524-.3906-.2246-1.5049.5596.0996,1.0098.1494,1.3496.1494s.79-.0498,1.3496-.1494c-.1546,1.1597-.2148.7051-.2246,1.5049s-.0146,1.54-.0146,2.2197v5.4297c0,.6807.0049,1.4209.0146,2.2207s.0254,1.5898.0449,2.3691c.0195.7803.0449,1.5205.0752,2.2207s.0645,1.2803.1045,1.7393c-.46-.04-.9102-.0596-1.3496-.0596-.4404,0-.8896.0195-1.3496.0596.0391-.459.0742-1.0391.1045-1.7393s.0547-1.4404.0752-2.2207c.0195-.7793.0352-1.5693.0449-2.3691s.0146-1.54.0146-2.2207v-5.4297c0-.6797-.0049-1.4199-.0146-2.2197Z"/><path d="m145.016,42.6859c0-1.3604.2148-2.5156.6455-3.4658.4297-.9492.9941-1.7197,1.6943-2.3096s1.4854-1.0205,2.3555-1.29c.8701-.2705,1.7344-.4053,2.5947-.4053.8799,0,1.75.1348,2.6104.4053.8594.2695,1.6396.7002,2.3398,1.29s1.2646,1.3604,1.6953,2.3096c.4297.9502.6445,2.1055.6445,3.4658,0,1.3594-.2148,2.5146-.6445,3.4648-.4307.9502-.9951,1.7197-1.6953,2.3096s-1.4805,1.0049-2.3398,1.2451c-.8604.2402-1.7305.3604-2.6104.3604-.8604,0-1.7246-.1201-2.5947-.3604s-1.6553-.6553-2.3555-1.2451-1.2646-1.3594-1.6943-2.3096c-.4307-.9502-.6455-2.1055-.6455-3.4648Zm2.6406,0c0,.8398.0742,1.6494.2246,2.4297s.4053,1.4746.7646,2.085c.3604.6104.8398,1.0947,1.4404,1.4551.5996.3594,1.3398.54,2.2197.54s1.6201-.1807,2.2197-.54c.6006-.3604,1.0801-.8447,1.4404-1.4551s.6152-1.3047.7646-2.085c.1504-.7803.2256-1.5898.2256-2.4297,0-.8408-.0752-1.6504-.2256-2.4307-.1494-.7803-.4043-1.4746-.7646-2.085-.3604-.6094-.8398-1.0947-1.4404-1.4551-.5996-.3594-1.3398-.54-2.2197-.54s-1.6201.1807-2.2197.54c-.6006.3604-1.0801.8457-1.4404,1.4551-.3594.6104-.6143,1.3047-.7646,2.085s-.2246,1.5898-.2246,2.4307Z"/><path d="m190.6772,37.9301c-.5811-.7695-1.3809-1.1543-2.4004-1.1543-1.4004,0-2.4258.4297-3.0752,1.29-.6504.8594-.9746,2.0693-.9746,3.6299v2.5498c0,.9004.0146,1.8447.0449,2.835s.0947,1.8857.1953,2.6846c-.4609-.04-.9111-.0596-1.3506-.0596-.4404,0-.8896.0195-1.3496.0596.0996-.7988.165-1.6943.1943-2.6846.0303-.9902.0449-1.9346.0449-2.835v-3.1201c0-.9004-.0146-1.8447-.0449-2.835-.0293-.9902-.0947-1.915-.1943-2.7754.5596.1006,1.0098.1504,1.3496.1504.1602,0,.335-.0146.5254-.0449.1895-.0303.415-.0645.6748-.1055-.0605.8008-.0898,1.6006-.0898,2.4004h.0596c.5596-.8594,1.2305-1.5244,2.0098-1.9951.7803-.4697,1.71-.7051,2.79-.7051.5605,0,1.125.0801,1.6953.2402s1.085.4346,1.5449.8252c.46.3896.835.9199,1.125,1.5898s.4355,1.5254.4355,2.5654c0,.8594-.0205,1.7451-.0605,2.6543-.04.9102-.0596,1.875-.0596,2.8955v1.9502c0,.3193.0049.6348.0146.9443.0098.3105.0254.6055.0449.8848-.4004-.04-.8203-.0596-1.2598-.0596-.4199,0-.8301.0195-1.2305.0596.04-1.0391.085-2.1094.1357-3.21.0498-1.0996.0742-2.2295.0742-3.3896v-1.8301c0-1.5-.29-2.6348-.8691-3.4053Z"/></g></svg>